{
  "source": "C:\\Users\\Peter\\Desktop\\stuff\\MIUN\\quantitative_research\\video_compression\\videos\\UVG\\YachtRide_1920x1080_120fps_420_8bit_YUV.y4m",
  "output": "C:\\Users\\Peter\\Desktop\\stuff\\MIUN\\quantitative_research\\video_compression\\compressed_videos\\UVG\\vp9\\2\\YachtRide_1920x1080_120fps_420_8bit_YUV_vp9.webm",
  "codec": "vp9",
  "ok": "[yuv4mpegpipe @ 0000013c5e565280] Stream #0: not enough frames to estimate rate; consider increasing probesize\nInput #0, yuv4mpegpipe, from 'C:\\Users\\Peter\\Desktop\\stuff\\MIUN\\quantitative_research\\video_compression\\videos\\UVG\\YachtRide_1920x1080_120fps_420_8bit_YUV.y4m':\n  Duration: 00:00:05.00, start: 0.000000, bitrate: 2985989 kb/s\n  Stream #0:0: Video: rawvideo (I420 / 0x30323449), yuv420p(progressive), 1920x1080, 120 fps, 120 tbr, 120 tbn\n[out#0/webm @ 0000013c5e568e00] Codec AVOption b:a (set bitrate (in bits/s)) has not been used for any stream. The most likely reason is either wrong type (e.g. a video option with no video streams) or that it is a private option of some decoder which was not actually used for any stream.\nStream mapping:\n  Stream #0:0 -> #0:0 (rawvideo (native) -> vp9 (libvpx-vp9))\nPress [q] to stop, [?] for help\n[libvpx-vp9 @ 0000013c5e56bf80] v1.15.2-100-g40561f514\nOutput #0, webm, to 'C:\\Users\\Peter\\Desktop\\stuff\\MIUN\\quantitative_research\\video_compression\\compressed_videos\\UVG\\vp9\\2\\YachtRide_1920x1080_120fps_420_8bit_YUV_vp9.webm':\n  Metadata:\n    encoder         : Lavf62.3.100\n  Stream #0:0: Video: vp9, yuv420p(tv, progressive), 1920x1080, q=2-31, 2000 kb/s, 120 fps, 1k tbn\n    Metadata:\n      encoder         : Lavc62.11.100 libvpx-vp9\n    Side data:\n      cpb: bitrate max/min/avg: 0/0/0 buffer size: 2000000 vbv_delay: N/A\nframe=    1 fps=0.0 q=45.0 size=       0KiB time=00:00:00.00 bitrate= 461.8kbits/s speed=0.0159x elapsed=0:00:00.52    \nframe=    6 fps=5.7 q=63.0 size=       0KiB time=00:00:00.05 bitrate=  77.0kbits/s speed=0.0477x elapsed=0:00:01.04    \nframe=   11 fps=7.0 q=59.0 size=       0KiB time=00:00:00.09 bitrate=  42.0kbits/s speed=0.0586x elapsed=0:00:01.56    \nframe=   15 fps=7.2 q=58.0 size=       0KiB time=00:00:00.12 bitrate=  30.8kbits/s speed=0.06x elapsed=0:00:02.08    \nframe=   19 fps=7.3 q=63.0 size=       0KiB time=00:00:00.15 bitrate=  24.3kbits/s speed=0.061x elapsed=0:00:02.59    \nframe=   23 fps=7.4 q=63.0 size=       0KiB time=00:00:00.19 bitrate=  20.1kbits/s speed=0.0615x elapsed=0:00:03.11    \nframe=   27 fps=7.5 q=63.0 size=       0KiB time=00:00:00.22 bitrate=  17.1kbits/s speed=0.0621x elapsed=0:00:03.62    \nframe=   30 fps=7.3 q=58.0 size=       0KiB time=00:00:00.25 bitrate=  15.4kbits/s speed=0.0604x elapsed=0:00:04.13    \nframe=   34 fps=7.3 q=62.0 size=       0KiB time=00:00:00.28 bitrate=  13.6kbits/s speed=0.0608x elapsed=0:00:04.65    \nframe=   38 fps=7.3 q=63.0 size=       0KiB time=00:00:00.31 bitrate=  12.2kbits/s speed=0.0612x elapsed=0:00:05.17    \nframe=   41 fps=7.2 q=59.0 size=       0KiB time=00:00:00.34 bitrate=  11.3kbits/s speed=0.0601x elapsed=0:00:05.68    \nframe=   45 fps=7.2 q=62.0 size=       0KiB time=00:00:00.37 bitrate=  10.3kbits/s speed=0.0604x elapsed=0:00:06.20    \nframe=   49 fps=7.3 q=63.0 size=       0KiB time=00:00:00.40 bitrate=   9.4kbits/s speed=0.0607x elapsed=0:00:06.72    \nframe=   52 fps=7.2 q=60.0 size=       0KiB time=00:00:00.43 bitrate=   8.9kbits/s speed=0.0599x elapsed=0:00:07.23    \nframe=   55 fps=7.1 q=59.0 size=       0KiB time=00:00:00.45 bitrate=   8.4kbits/s speed=0.0592x elapsed=0:00:07.74    \nframe=   59 fps=7.1 q=60.0 size=       0KiB time=00:00:00.49 bitrate=   7.8kbits/s speed=0.0595x elapsed=0:00:08.26    \nframe=   62 fps=7.1 q=60.0 size=       0KiB time=00:00:00.51 bitrate=   7.4kbits/s speed=0.0588x elapsed=0:00:08.78    \nframe=   65 fps=7.0 q=63.0 size=       0KiB time=00:00:00.54 bitrate=   7.1kbits/s speed=0.0582x elapsed=0:00:09.30    \nframe=   68 fps=6.9 q=63.0 size=       0KiB time=00:00:00.56 bitrate=   6.8kbits/s speed=0.0577x elapsed=0:00:09.82    \nframe=   72 fps=7.0 q=63.0 size=       0KiB time=00:00:00.60 bitrate=   6.4kbits/s speed=0.0581x elapsed=0:00:10.32    \nframe=   75 fps=6.9 q=63.0 size=       0KiB time=00:00:00.62 bitrate=   6.2kbits/s speed=0.0576x elapsed=0:00:10.84    \nframe=   79 fps=7.0 q=62.0 size=       0KiB time=00:00:00.65 bitrate=   5.8kbits/s speed=0.058x elapsed=0:00:11.35    \nframe=   82 fps=6.9 q=60.0 size=       0KiB time=00:00:00.68 bitrate=   5.6kbits/s speed=0.0575x elapsed=0:00:11.88    \nframe=   86 fps=6.9 q=60.0 size=       0KiB time=00:00:00.71 bitrate=   5.4kbits/s speed=0.0578x elapsed=0:00:12.38    \nframe=   89 fps=6.9 q=52.0 size=       0KiB time=00:00:00.74 bitrate=   5.2kbits/s speed=0.0575x elapsed=0:00:12.90    \nframe=   93 fps=6.9 q=60.0 size=       0KiB time=00:00:00.77 bitrate=   5.0kbits/s speed=0.0577x elapsed=0:00:13.42    \nframe=   96 fps=6.9 q=63.0 size=       0KiB time=00:00:00.80 bitrate=   4.8kbits/s speed=0.0574x elapsed=0:00:13.94    \nframe=  100 fps=6.9 q=63.0 size=       0KiB time=00:00:00.83 bitrate=   4.6kbits/s speed=0.0577x elapsed=0:00:14.45    \nframe=  103 fps=6.9 q=59.0 size=       0KiB time=00:00:00.85 bitrate=   4.5kbits/s speed=0.0573x elapsed=0:00:14.96    \nframe=  106 fps=6.8 q=60.0 size=       0KiB time=00:00:00.88 bitrate=   4.4kbits/s speed=0.0571x elapsed=0:00:15.48    \nframe=  110 fps=6.9 q=61.0 size=       0KiB time=00:00:00.91 bitrate=   4.2kbits/s speed=0.0573x elapsed=0:00:16.00    \nframe=  113 fps=6.8 q=63.0 size=       0KiB time=00:00:00.94 bitrate=   4.1kbits/s speed=0.057x elapsed=0:00:16.51    \nframe=  116 fps=6.8 q=51.0 size=       0KiB time=00:00:00.96 bitrate=   4.0kbits/s speed=0.0568x elapsed=0:00:17.03    \nframe=  120 fps=6.8 q=61.0 size=       0KiB time=00:00:01.00 bitrate=   3.8kbits/s speed=0.057x elapsed=0:00:17.55    \nframe=  123 fps=6.8 q=62.0 size=       0KiB time=00:00:01.02 bitrate=   3.8kbits/s speed=0.0568x elapsed=0:00:18.06    \nframe=  127 fps=6.8 q=62.0 size=       0KiB time=00:00:01.05 bitrate=   3.6kbits/s speed=0.057x elapsed=0:00:18.57    \nframe=  130 fps=6.8 q=62.0 size=     256KiB time=00:00:01.08 bitrate=1935.8kbits/s speed=0.0567x elapsed=0:00:19.09    \nframe=  134 fps=6.8 q=62.0 size=     256KiB time=00:00:01.11 bitrate=1878.0kbits/s speed=0.057x elapsed=0:00:19.60    \nframe=  138 fps=6.9 q=62.0 size=     256KiB time=00:00:01.15 bitrate=1823.6kbits/s speed=0.0572x elapsed=0:00:20.12    \nframe=  142 fps=6.9 q=62.0 size=     256KiB time=00:00:01.18 bitrate=1772.2kbits/s speed=0.0573x elapsed=0:00:20.64    \nframe=  145 fps=6.9 q=62.0 size=     256KiB time=00:00:01.20 bitrate=1735.6kbits/s speed=0.0571x elapsed=0:00:21.16    \nframe=  149 fps=6.9 q=63.0 size=     256KiB time=00:00:01.24 bitrate=1689.0kbits/s speed=0.0573x elapsed=0:00:21.67    \nframe=  152 fps=6.9 q=61.0 size=     256KiB time=00:00:01.26 bitrate=1655.6kbits/s speed=0.0571x elapsed=0:00:22.18    \nframe=  156 fps=6.9 q=60.0 size=     256KiB time=00:00:01.30 bitrate=1613.2kbits/s speed=0.0573x elapsed=0:00:22.70    \nframe=  158 fps=6.8 q=61.0 size=     256KiB time=00:00:01.31 bitrate=1592.8kbits/s speed=0.0567x elapsed=0:00:23.21    \nframe=  162 fps=6.8 q=63.0 size=     256KiB time=00:00:01.35 bitrate=1553.4kbits/s speed=0.0569x elapsed=0:00:23.73    \nframe=  166 fps=6.8 q=63.0 size=     256KiB time=00:00:01.38 bitrate=1516.0kbits/s speed=0.057x elapsed=0:00:24.25    \nframe=  170 fps=6.9 q=63.0 size=     256KiB time=00:00:01.41 bitrate=1480.3kbits/s speed=0.0572x elapsed=0:00:24.76    \nframe=  173 fps=6.8 q=60.0 size=     256KiB time=00:00:01.44 bitrate=1454.7kbits/s speed=0.057x elapsed=0:00:25.28    \nframe=  176 fps=6.8 q=59.0 size=     256KiB time=00:00:01.46 bitrate=1429.9kbits/s speed=0.0569x elapsed=0:00:25.79    \nframe=  180 fps=6.8 q=59.0 size=     256KiB time=00:00:01.50 bitrate=1398.1kbits/s speed=0.057x elapsed=0:00:26.31    \nframe=  183 fps=6.8 q=63.0 size=     256KiB time=00:00:01.52 bitrate=1375.2kbits/s speed=0.0568x elapsed=0:00:26.82    \nframe=  187 fps=6.8 q=63.0 size=     256KiB time=00:00:01.55 bitrate=1345.8kbits/s speed=0.057x elapsed=0:00:27.33    \nframe=  190 fps=6.8 q=63.0 size=     256KiB time=00:00:01.58 bitrate=1324.5kbits/s speed=0.0568x elapsed=0:00:27.86    \nframe=  194 fps=6.8 q=63.0 size=     256KiB time=00:00:01.61 bitrate=1297.2kbits/s speed=0.057x elapsed=0:00:28.38    \nframe=  198 fps=6.9 q=63.0 size=     256KiB time=00:00:01.65 bitrate=1271.0kbits/s speed=0.0571x elapsed=0:00:28.89    \nframe=  201 fps=6.8 q=59.0 size=     256KiB time=00:00:01.67 bitrate=1252.0kbits/s speed=0.057x elapsed=0:00:29.40    \nframe=  204 fps=6.8 q=51.0 size=     256KiB time=00:00:01.70 bitrate=1233.6kbits/s speed=0.0568x elapsed=0:00:29.92    \nframe=  208 fps=6.8 q=62.0 size=     256KiB time=00:00:01.73 bitrate=1209.9kbits/s speed=0.0569x elapsed=0:00:30.43    \nframe=  212 fps=6.8 q=63.0 size=     256KiB time=00:00:01.76 bitrate=1187.1kbits/s speed=0.0571x elapsed=0:00:30.94    \nframe=  216 fps=6.9 q=63.0 size=     256KiB time=00:00:01.80 bitrate=1165.1kbits/s speed=0.0572x elapsed=0:00:31.47    \nframe=  219 fps=6.8 q=63.0 size=     256KiB time=00:00:01.82 bitrate=1149.1kbits/s speed=0.0571x elapsed=0:00:31.98    \nframe=  223 fps=6.9 q=63.0 size=     256KiB time=00:00:01.85 bitrate=1128.5kbits/s speed=0.0572x elapsed=0:00:32.50    \nframe=  226 fps=6.8 q=63.0 size=     256KiB time=00:00:01.88 bitrate=1113.5kbits/s speed=0.057x elapsed=0:00:33.02    \nframe=  230 fps=6.9 q=63.0 size=     256KiB time=00:00:01.91 bitrate=1094.2kbits/s speed=0.0572x elapsed=0:00:33.53    \nframe=  233 fps=6.8 q=63.0 size=     256KiB time=00:00:01.94 bitrate=1080.1kbits/s speed=0.057x elapsed=0:00:34.05    \nframe=  237 fps=6.9 q=63.0 size=     256KiB time=00:00:01.97 bitrate=1061.8kbits/s speed=0.0571x elapsed=0:00:34.56    \nframe=  241 fps=6.9 q=61.0 size=     256KiB time=00:00:02.00 bitrate=1044.2kbits/s speed=0.0572x elapsed=0:00:35.08    \nframe=  244 fps=6.9 q=63.0 size=     256KiB time=00:00:02.03 bitrate=1031.4kbits/s speed=0.0571x elapsed=0:00:35.59    \nframe=  247 fps=6.8 q=63.0 size=     256KiB time=00:00:02.05 bitrate=1018.9kbits/s speed=0.057x elapsed=0:00:36.11    \nframe=  251 fps=6.9 q=63.0 size=     256KiB time=00:00:02.09 bitrate=1002.6kbits/s speed=0.0571x elapsed=0:00:36.62    \nframe=  255 fps=6.9 q=63.0 size=     256KiB time=00:00:02.12 bitrate= 986.9kbits/s speed=0.0572x elapsed=0:00:37.14    \nframe=  258 fps=6.9 q=63.0 size=     512KiB time=00:00:02.15 bitrate=1950.8kbits/s speed=0.0571x elapsed=0:00:37.65    \nframe=  263 fps=6.9 q=61.0 size=     512KiB time=00:00:02.19 bitrate=1913.8kbits/s speed=0.0574x elapsed=0:00:38.17    \nframe=  267 fps=6.9 q=63.0 size=     512KiB time=00:00:02.22 bitrate=1885.1kbits/s speed=0.0575x elapsed=0:00:38.68    \nframe=  270 fps=6.9 q=62.0 size=     512KiB time=00:00:02.25 bitrate=1864.1kbits/s speed=0.0574x elapsed=0:00:39.20    \nframe=  274 fps=6.9 q=63.0 size=     512KiB time=00:00:02.28 bitrate=1836.9kbits/s speed=0.0575x elapsed=0:00:39.71    \nframe=  277 fps=6.9 q=61.0 size=     512KiB time=00:00:02.30 bitrate=1817.0kbits/s speed=0.0574x elapsed=0:00:40.23    \nframe=  281 fps=6.9 q=63.0 size=     512KiB time=00:00:02.34 bitrate=1791.2kbits/s speed=0.0575x elapsed=0:00:40.75    \nframe=  284 fps=6.9 q=61.0 size=     512KiB time=00:00:02.36 bitrate=1772.2kbits/s speed=0.0574x elapsed=0:00:41.26    \nframe=  288 fps=6.9 q=63.0 size=     512KiB time=00:00:02.40 bitrate=1747.6kbits/s speed=0.0574x elapsed=0:00:41.78    \nframe=  291 fps=6.9 q=61.0 size=     512KiB time=00:00:02.42 bitrate=1729.6kbits/s speed=0.0573x elapsed=0:00:42.29    \nframe=  295 fps=6.9 q=62.0 size=     512KiB time=00:00:02.45 bitrate=1706.2kbits/s speed=0.0574x elapsed=0:00:42.81    \nframe=  298 fps=6.9 q=61.0 size=     512KiB time=00:00:02.48 bitrate=1689.0kbits/s speed=0.0573x elapsed=0:00:43.33    \nframe=  302 fps=6.9 q=59.0 size=     512KiB time=00:00:02.51 bitrate=1666.6kbits/s speed=0.0574x elapsed=0:00:43.84    \nframe=  305 fps=6.9 q=63.0 size=     512KiB time=00:00:02.54 bitrate=1650.2kbits/s speed=0.0573x elapsed=0:00:44.35    \nframe=  308 fps=6.9 q=63.0 size=     512KiB time=00:00:02.56 bitrate=1634.1kbits/s speed=0.0572x elapsed=0:00:44.87    \nframe=  312 fps=6.9 q=63.0 size=     512KiB time=00:00:02.60 bitrate=1613.2kbits/s speed=0.0573x elapsed=0:00:45.39    \nframe=  315 fps=6.9 q=63.0 size=     512KiB time=00:00:02.62 bitrate=1597.8kbits/s speed=0.0572x elapsed=0:00:45.91    \nframe=  319 fps=6.9 q=63.0 size=     512KiB time=00:00:02.65 bitrate=1577.8kbits/s speed=0.0573x elapsed=0:00:46.41    \nframe=  322 fps=6.9 q=63.0 size=     512KiB time=00:00:02.68 bitrate=1563.1kbits/s speed=0.0572x elapsed=0:00:46.94    \nframe=  326 fps=6.9 q=63.0 size=     512KiB time=00:00:02.71 bitrate=1543.9kbits/s speed=0.0572x elapsed=0:00:47.46    \nframe=  329 fps=6.9 q=63.0 size=     512KiB time=00:00:02.74 bitrate=1529.8kbits/s speed=0.0572x elapsed=0:00:47.97    \nframe=  332 fps=6.8 q=62.0 size=     512KiB time=00:00:02.76 bitrate=1516.0kbits/s speed=0.0571x elapsed=0:00:48.48    \nframe=  336 fps=6.9 q=63.0 size=     512KiB time=00:00:02.80 bitrate=1498.0kbits/s speed=0.0571x elapsed=0:00:48.99    \nframe=  339 fps=6.8 q=62.0 size=     512KiB time=00:00:02.82 bitrate=1484.7kbits/s speed=0.0571x elapsed=0:00:49.51    \nframe=  342 fps=6.8 q=54.0 size=     512KiB time=00:00:02.85 bitrate=1471.7kbits/s speed=0.057x elapsed=0:00:50.03    \nframe=  346 fps=6.8 q=62.0 size=     512KiB time=00:00:02.88 bitrate=1454.7kbits/s speed=0.057x elapsed=0:00:50.54    \nframe=  348 fps=6.8 q=61.0 size=     512KiB time=00:00:02.90 bitrate=1446.3kbits/s speed=0.0568x elapsed=0:00:51.06    \nframe=  352 fps=6.8 q=63.0 size=     512KiB time=00:00:02.93 bitrate=1429.9kbits/s speed=0.0569x elapsed=0:00:51.57    \nframe=  355 fps=6.8 q=61.0 size=     512KiB time=00:00:02.95 bitrate=1417.8kbits/s speed=0.0568x elapsed=0:00:52.09    \nframe=  359 fps=6.8 q=63.0 size=     512KiB time=00:00:02.99 bitrate=1402.0kbits/s speed=0.0569x elapsed=0:00:52.60    \nframe=  363 fps=6.8 q=63.0 size=     512KiB time=00:00:03.02 bitrate=1386.5kbits/s speed=0.0569x elapsed=0:00:53.12    \nframe=  366 fps=6.8 q=60.0 size=     512KiB time=00:00:03.05 bitrate=1375.2kbits/s speed=0.0569x elapsed=0:00:53.63    \nframe=  370 fps=6.8 q=60.0 size=     512KiB time=00:00:03.08 bitrate=1360.3kbits/s speed=0.0569x elapsed=0:00:54.15    \nframe=  373 fps=6.8 q=62.0 size=     512KiB time=00:00:03.10 bitrate=1349.4kbits/s speed=0.0568x elapsed=0:00:54.68    \nframe=  377 fps=6.8 q=63.0 size=     512KiB time=00:00:03.14 bitrate=1335.1kbits/s speed=0.0569x elapsed=0:00:55.20    \nframe=  380 fps=6.8 q=61.0 size=     512KiB time=00:00:03.16 bitrate=1324.5kbits/s speed=0.0568x elapsed=0:00:55.72    \nframe=  384 fps=6.8 q=61.0 size=     512KiB time=00:00:03.20 bitrate=1310.7kbits/s speed=0.0569x elapsed=0:00:56.23    \nframe=  387 fps=6.8 q=61.0 size=     768KiB time=00:00:03.22 bitrate=1950.8kbits/s speed=0.0568x elapsed=0:00:56.75    \nframe=  391 fps=6.8 q=61.0 size=     768KiB time=00:00:03.25 bitrate=1930.9kbits/s speed=0.0569x elapsed=0:00:57.27    \nframe=  394 fps=6.8 q=61.0 size=     768KiB time=00:00:03.28 bitrate=1916.2kbits/s speed=0.0568x elapsed=0:00:57.78    \nframe=  398 fps=6.8 q=61.0 size=     768KiB time=00:00:03.31 bitrate=1896.9kbits/s speed=0.0569x elapsed=0:00:58.29    \nframe=  401 fps=6.8 q=60.0 size=     768KiB time=00:00:03.34 bitrate=1882.7kbits/s speed=0.0568x elapsed=0:00:58.81    \nframe=  404 fps=6.8 q=63.0 size=     768KiB time=00:00:03.36 bitrate=1868.7kbits/s speed=0.0567x elapsed=0:00:59.33    \nframe=  407 fps=6.8 q=63.0 size=     768KiB time=00:00:03.39 bitrate=1855.0kbits/s speed=0.0567x elapsed=0:00:59.84    \nframe=  411 fps=6.8 q=63.0 size=     768KiB time=00:00:03.42 bitrate=1836.9kbits/s speed=0.0567x elapsed=0:01:00.36    \nframe=  414 fps=6.8 q=63.0 size=     768KiB time=00:00:03.45 bitrate=1823.6kbits/s speed=0.0567x elapsed=0:01:00.87    \nframe=  418 fps=6.8 q=63.0 size=     768KiB time=00:00:03.48 bitrate=1806.2kbits/s speed=0.0567x elapsed=0:01:01.38    \nframe=  421 fps=6.8 q=63.0 size=     768KiB time=00:00:03.50 bitrate=1793.3kbits/s speed=0.0567x elapsed=0:01:01.91    \nframe=  424 fps=6.8 q=60.0 size=     768KiB time=00:00:03.53 bitrate=1780.6kbits/s speed=0.0566x elapsed=0:01:02.42    \nframe=  427 fps=6.8 q=54.0 size=     768KiB time=00:00:03.55 bitrate=1768.1kbits/s speed=0.0565x elapsed=0:01:02.93    \nframe=  430 fps=6.8 q=63.0 size=     768KiB time=00:00:03.58 bitrate=1755.8kbits/s speed=0.0565x elapsed=0:01:03.45    \nframe=  434 fps=6.8 q=63.0 size=     768KiB time=00:00:03.61 bitrate=1739.6kbits/s speed=0.0565x elapsed=0:01:03.96    \nframe=  438 fps=6.8 q=63.0 size=     768KiB time=00:00:03.65 bitrate=1723.7kbits/s speed=0.0566x elapsed=0:01:04.49    \nframe=  441 fps=6.8 q=60.0 size=     768KiB time=00:00:03.67 bitrate=1712.0kbits/s speed=0.0565x elapsed=0:01:05.00    \nframe=  444 fps=6.8 q=59.0 size=     768KiB time=00:00:03.70 bitrate=1700.4kbits/s speed=0.0565x elapsed=0:01:05.51    \nframe=  447 fps=6.8 q=63.0 size=     768KiB time=00:00:03.72 bitrate=1689.0kbits/s speed=0.0564x elapsed=0:01:06.02    \nframe=  451 fps=6.8 q=63.0 size=     768KiB time=00:00:03.75 bitrate=1674.0kbits/s speed=0.0565x elapsed=0:01:06.54    \nframe=  455 fps=6.8 q=63.0 size=     768KiB time=00:00:03.79 bitrate=1659.3kbits/s speed=0.0565x elapsed=0:01:07.05    \nframe=  458 fps=6.8 q=63.0 size=     768KiB time=00:00:03.81 bitrate=1648.4kbits/s speed=0.0565x elapsed=0:01:07.58    \nframe=  461 fps=6.8 q=60.0 size=     768KiB time=00:00:03.84 bitrate=1637.7kbits/s speed=0.0564x elapsed=0:01:08.09    \nframe=  465 fps=6.8 q=60.0 size=     768KiB time=00:00:03.87 bitrate=1623.6kbits/s speed=0.0565x elapsed=0:01:08.61    \nframe=  468 fps=6.8 q=63.0 size=     768KiB time=00:00:03.90 bitrate=1613.2kbits/s speed=0.0564x elapsed=0:01:09.12    \nframe=  471 fps=6.8 q=60.0 size=     768KiB time=00:00:03.92 bitrate=1602.9kbits/s speed=0.0564x elapsed=0:01:09.64    \nframe=  475 fps=6.8 q=63.0 size=     768KiB time=00:00:03.95 bitrate=1589.4kbits/s speed=0.0564x elapsed=0:01:10.16    \nframe=  479 fps=6.8 q=63.0 size=     768KiB time=00:00:03.99 bitrate=1576.1kbits/s speed=0.0565x elapsed=0:01:10.67    \nframe=  483 fps=6.8 q=63.0 size=     768KiB time=00:00:04.02 bitrate=1563.1kbits/s speed=0.0565x elapsed=0:01:11.19    \nframe=  486 fps=6.8 q=61.0 size=     768KiB time=00:00:04.05 bitrate=1553.4kbits/s speed=0.0565x elapsed=0:01:11.70    \nframe=  491 fps=6.8 q=60.0 size=     768KiB time=00:00:04.09 bitrate=1537.6kbits/s speed=0.0567x elapsed=0:01:12.22    \nframe=  495 fps=6.8 q=61.0 size=     768KiB time=00:00:04.12 bitrate=1525.2kbits/s speed=0.0567x elapsed=0:01:12.73    \nframe=  499 fps=6.8 q=62.0 size=     768KiB time=00:00:04.15 bitrate=1513.0kbits/s speed=0.0568x elapsed=0:01:13.24    \nframe=  502 fps=6.8 q=60.0 size=     768KiB time=00:00:04.18 bitrate=1503.9kbits/s speed=0.0567x elapsed=0:01:13.76    \nframe=  505 fps=6.8 q=63.0 size=     768KiB time=00:00:04.20 bitrate=1495.0kbits/s speed=0.0567x elapsed=0:01:14.27    \nframe=  509 fps=6.8 q=63.0 size=     768KiB time=00:00:04.24 bitrate=1483.3kbits/s speed=0.0567x elapsed=0:01:14.80    \nframe=  512 fps=6.8 q=61.0 size=     768KiB time=00:00:04.26 bitrate=1474.6kbits/s speed=0.0567x elapsed=0:01:15.31    \nframe=  514 fps=6.8 q=63.0 size=    1024KiB time=00:00:04.28 bitrate=1958.4kbits/s speed=0.0565x elapsed=0:01:15.82    \nframe=  517 fps=6.8 q=60.0 size=    1024KiB time=00:00:04.30 bitrate=1947.1kbits/s speed=0.0564x elapsed=0:01:16.34    \nframe=  520 fps=6.8 q=63.0 size=    1024KiB time=00:00:04.33 bitrate=1935.8kbits/s speed=0.0564x elapsed=0:01:16.86    \nframe=  523 fps=6.8 q=61.0 size=    1024KiB time=00:00:04.35 bitrate=1924.7kbits/s speed=0.0563x elapsed=0:01:17.39    \nframe=  525 fps=6.7 q=61.0 size=    1024KiB time=00:00:04.37 bitrate=1917.4kbits/s speed=0.0562x elapsed=0:01:17.90    \nframe=  527 fps=6.7 q=61.0 size=    1024KiB time=00:00:04.39 bitrate=1910.1kbits/s speed=0.056x elapsed=0:01:18.42    \nframe=  529 fps=6.7 q=63.0 size=    1024KiB time=00:00:04.40 bitrate=1902.9kbits/s speed=0.0558x elapsed=0:01:18.93    \nframe=  531 fps=6.7 q=63.0 size=    1024KiB time=00:00:04.42 bitrate=1895.7kbits/s speed=0.0557x elapsed=0:01:19.45    \nframe=  534 fps=6.7 q=60.0 size=    1024KiB time=00:00:04.45 bitrate=1885.1kbits/s speed=0.0556x elapsed=0:01:19.97    \nframe=  536 fps=6.7 q=59.0 size=    1024KiB time=00:00:04.46 bitrate=1878.0kbits/s speed=0.0555x elapsed=0:01:20.50    \nframe=  539 fps=6.7 q=63.0 size=    1024KiB time=00:00:04.49 bitrate=1867.6kbits/s speed=0.0554x elapsed=0:01:21.03    \nframe=  541 fps=6.6 q=63.0 size=    1024KiB time=00:00:04.50 bitrate=1860.7kbits/s speed=0.0553x elapsed=0:01:21.56    \nframe=  542 fps=6.6 q=59.0 size=    1024KiB time=00:00:04.51 bitrate=1857.3kbits/s speed=0.055x elapsed=0:01:22.08    \nframe=  544 fps=6.6 q=63.0 size=    1024KiB time=00:00:04.53 bitrate=1850.4kbits/s speed=0.0549x elapsed=0:01:22.61    \nframe=  548 fps=6.6 q=63.0 size=    1024KiB time=00:00:04.56 bitrate=1836.9kbits/s speed=0.0549x elapsed=0:01:23.13    \nframe=  550 fps=6.6 q=63.0 size=    1024KiB time=00:00:04.58 bitrate=1830.2kbits/s speed=0.0548x elapsed=0:01:23.65    \nframe=  552 fps=6.6 q=63.0 size=    1024KiB time=00:00:04.60 bitrate=1823.6kbits/s speed=0.0546x elapsed=0:01:24.17    \nframe=  554 fps=6.5 q=63.0 size=    1024KiB time=00:00:04.61 bitrate=1817.0kbits/s speed=0.0545x elapsed=0:01:24.68    \nframe=  556 fps=6.5 q=63.0 size=    1024KiB time=00:00:04.63 bitrate=1810.5kbits/s speed=0.0544x elapsed=0:01:25.20    \nframe=  558 fps=6.5 q=49.0 size=    1024KiB time=00:00:04.65 bitrate=1804.0kbits/s speed=0.0542x elapsed=0:01:25.71    \nframe=  561 fps=6.5 q=63.0 size=    1024KiB time=00:00:04.67 bitrate=1794.4kbits/s speed=0.0542x elapsed=0:01:26.24    \nframe=  563 fps=6.5 q=63.0 size=    1024KiB time=00:00:04.69 bitrate=1788.0kbits/s speed=0.0541x elapsed=0:01:26.76    \nframe=  565 fps=6.5 q=63.0 size=    1024KiB time=00:00:04.70 bitrate=1781.7kbits/s speed=0.0539x elapsed=0:01:27.28    \nframe=  567 fps=6.5 q=63.0 size=    1024KiB time=00:00:04.72 bitrate=1775.4kbits/s speed=0.0538x elapsed=0:01:27.82    \nframe=  569 fps=6.4 q=63.0 size=    1024KiB time=00:00:04.74 bitrate=1769.1kbits/s speed=0.0537x elapsed=0:01:28.35    \nframe=  571 fps=6.4 q=63.0 size=    1024KiB time=00:00:04.75 bitrate=1762.9kbits/s speed=0.0535x elapsed=0:01:28.88    \nframe=  572 fps=6.4 q=57.0 size=    1024KiB time=00:00:04.76 bitrate=1759.8kbits/s speed=0.0533x elapsed=0:01:29.38    \nframe=  575 fps=6.4 q=57.0 size=    1024KiB time=00:00:04.79 bitrate=1750.7kbits/s speed=0.0533x elapsed=0:01:29.91    \nframe=  576 fps=6.4 q=63.0 size=    1024KiB time=00:00:04.80 bitrate=1747.6kbits/s speed=0.0531x elapsed=0:01:30.43    \nframe=  576 fps=6.3 q=63.0 size=    1024KiB time=00:00:04.80 bitrate=1747.6kbits/s speed=0.0528x elapsed=0:01:30.95    \nframe=  576 fps=6.3 q=63.0 size=    1024KiB time=00:00:04.80 bitrate=1747.6kbits/s speed=0.0525x elapsed=0:01:31.47    \nframe=  576 fps=6.3 q=63.0 size=    1024KiB time=00:00:04.80 bitrate=1747.6kbits/s speed=0.0522x elapsed=0:01:31.98    \nframe=  576 fps=6.2 q=63.0 size=    1024KiB time=00:00:04.80 bitrate=1747.6kbits/s speed=0.0519x elapsed=0:01:32.52    \nframe=  576 fps=6.2 q=63.0 size=    1024KiB time=00:00:04.80 bitrate=1747.6kbits/s speed=0.0516x elapsed=0:01:33.05    \nframe=  576 fps=6.2 q=63.0 size=    1024KiB time=00:00:04.80 bitrate=1747.6kbits/s speed=0.0513x elapsed=0:01:33.58    \nframe=  576 fps=6.1 q=63.0 size=    1024KiB time=00:00:04.80 bitrate=1747.6kbits/s speed=0.051x elapsed=0:01:34.09    \nframe=  576 fps=6.1 q=63.0 size=    1024KiB time=00:00:04.80 bitrate=1747.6kbits/s speed=0.0507x elapsed=0:01:34.61    \n[out#0/webm @ 0000013c5e568e00] video:1514KiB audio:0KiB subtitle:0KiB other streams:0KiB global headers:0KiB muxing overhead: 0.311969%\nframe=  600 fps=6.3 q=56.0 Lsize=    1518KiB time=00:00:05.00 bitrate=2487.5kbits/s speed=0.0528x elapsed=0:01:34.74    \n",
  "seconds": 94.89186406135559,
  "probe_out": {}
}